<svg width="65" height="64" fill="none" xmlns="http://www.w3.org/2000/svg"><path d="M17.637 23.487a5.517 5.517 0 0 0-4.963 3.144 5.49 5.49 0 0 0 .705 5.826l13.995 17.111a4.999 4.999 0 0 0 4.18 1.852c1.7-.09 3.233-.998 4.21-2.489l29.072-46.73a.796.796 0 0 1 .015-.024c.273-.418.185-1.246-.378-1.767a1.546 1.546 0 0 0-2.277.193l-29.32 33.064a1.27 1.27 0 0 1-1.806.097l-9.73-8.838a5.492 5.492 0 0 0-3.703-1.439Z" fill="#2A8B08"/><circle cx="31.429" cy="32.142" r="30.429" stroke="#2A8B08" stroke-width="2" stroke-dasharray="8 8"/></svg>