<svg width="35" height="35" fill="none" xmlns="http://www.w3.org/2000/svg"><circle cx="17" cy="17" r="13" fill="#fff"/><path d="M17.5 0C7.838 0 0 7.834 0 17.5S7.838 35 17.5 35C27.163 35 35 27.166 35 17.5S27.166 0 17.5 0Zm8.944 24.723c-.33 3.773-8.38 1.948-13.746-2.444-5.371-4.395-6.87-13.558-2.256-13.5 1.618.023 3.224.707 3.716 2.516.487 1.814-.38 3.623-1.94 4.046 0 0 .084 2.055 3.138 4.656 1.587 1.353 4.699 2.41 4.699 2.41.55-1.522 2.428-2.237 4.191-1.6 1.764.639 2.344 2.298 2.202 3.912l-.004.004Z" fill="#D9D9D9"/></svg>