<svg width="763" height="562" fill="none" xmlns="http://www.w3.org/2000/svg"><path d="M739.027 150.554c33.075 17.954 22.76-48.485 21.236-67.38-1.856-23.465-5.003-46.32-8.303-69.305-2.096-14.954-25.827-19.23-40.427-1.813-29.649 35.368-60.735 68.882-93.882 102.294-4.743 4.804-20.885 19.173-8.865 34.313 1.343 1.58 3.133 2.625 5.378 3.205 2.065.95 4.496 1.231 7.235.989 1.807-.371 3.621-.672 5.428-1.044a23.368 23.368 0 0 0 7.605-3.642c2.493-1.422 10.177-8.183 11.406-9.494 2.111-1.743 18.558-15.077 24.959-19.532-18.314 35.5-38.427 70.664-63.17 104.68-44.002 60.402-100.363 117.084-163.821 164.699-128.234 96.337-294.968 158.149-436.07 160.682-8.196.156-10.709 10.99-3.108 11.31 151.334 6.752 316.809-43.63 461.411-147.777C570.453 337.603 665.94 229.437 708.71 122.948c6.472 9.192 27.717 26.208 30.463 27.664l-.146-.058Z" fill="#FF0040"/></svg>