<svg width="354" height="219" fill="none" xmlns="http://www.w3.org/2000/svg"><g clip-path="url(#a)"><path d="M130.182 148.283 168.998 219l-141.6-45.618 102.784-25.099Z" fill="#80080A"/><path d="m335.727 143.726-308.33 29.656-4.063-73.68L354 50.198l-18.273 93.527Z" fill="#99090C"/><path d="m6.83 127.74 328.897 16.459 18.273-94L0 0l6.83 127.74Z" fill="#E10813"/><path d="M78.762 104.674c-4.883-.585-9.13-2.006-12.738-4.261-3.585-2.252-6.306-5.09-8.162-8.513-1.856-3.424-2.586-7.18-2.19-11.268l14.514 1.739c-.168 2.76.717 5.121 2.655 7.083 1.938 1.96 4.382 3.118 7.33 3.472 2.35.281 4.485.011 6.406-.81a11.207 11.207 0 0 0 4.777-3.88c1.263-1.764 2.04-3.867 2.334-6.309.298-2.488.03-4.74-.803-6.756-.81-2.013-2.073-3.66-3.789-4.94-1.716-1.28-3.758-2.074-6.128-2.382-2.074-.248-4.14-.064-6.2.554-2.038.62-3.686 1.603-4.946 2.948l-13.017-3.978 7.827-36.917 43.261 5.184-1.467 12.232-30.925-3.706-3.957 17.507.414.05c1.454-1.602 3.506-2.828 6.155-3.68 2.649-.85 5.528-1.09 8.638-.717 4.262.51 7.942 1.968 11.042 4.373 3.1 2.404 5.408 5.473 6.923 9.206 1.518 3.71 1.993 7.833 1.426 12.369-.549 4.77-2.163 8.877-4.842 12.318-2.653 3.42-6.1 5.952-10.339 7.594-4.213 1.621-8.946 2.117-14.199 1.488Zm64.546 8.33c-5.941-.735-10.879-2.811-14.816-6.227-3.914-3.413-6.692-8.01-8.335-13.792-1.621-5.779-1.956-12.537-1.004-20.274.925-7.717 2.854-14.157 5.786-19.32 2.956-5.16 6.734-8.902 11.336-11.225 4.627-2.343 9.901-3.16 15.821-2.45 5.92.709 10.84 2.747 14.759 6.114 3.942 3.37 6.739 7.911 8.391 13.624 1.654 5.69 2.007 12.391 1.059 20.105-.931 7.763-2.878 14.26-5.842 19.489-2.941 5.232-6.716 9.044-11.326 11.436-4.609 2.392-9.886 3.232-15.829 2.52Zm1.487-12.405c4.055.486 7.536-1.165 10.443-4.953 2.908-3.787 4.839-9.76 5.794-17.917.644-5.367.627-9.902-.051-13.605-.655-3.7-1.876-6.57-3.665-8.606-1.765-2.034-3.996-3.213-6.691-3.536-4.031-.483-7.498 1.146-10.4 4.888-2.902 3.741-4.847 9.63-5.834 17.667-.652 5.436-.655 10.04-.009 13.809.673 3.749 1.902 6.653 3.687 8.713 1.789 2.037 4.031 3.217 6.726 3.54Zm100.791 9.624.447-3.732c.34-2.833 1.251-5.365 2.733-7.594 1.508-2.25 3.5-3.95 5.975-5.102 2.5-1.173 5.421-1.559 8.761-1.159 3.386.406 6.146 1.461 8.278 3.165 2.155 1.707 3.677 3.83 4.564 6.366.914 2.516 1.199 5.202.857 8.059l-.448 3.731c-.34 2.834-1.252 5.377-2.737 7.629-1.483 2.229-3.473 3.918-5.971 5.068-2.5 1.172-5.421 1.558-8.761 1.158-3.386-.406-6.144-1.472-8.274-3.2-2.132-1.704-3.655-3.814-4.568-6.33-.911-2.54-1.196-5.226-.856-8.059Zm10.502-2.527-.447 3.732a9.68 9.68 0 0 0 .619 4.771c.633 1.547 1.997 2.447 4.093 2.698 2.096.251 3.61-.292 4.542-1.629.954-1.334 1.532-2.842 1.734-4.524l.447-3.732c.202-1.681.021-3.292-.542-4.831-.563-1.54-1.927-2.439-4.093-2.699-2.073-.248-3.6.305-4.58 1.659a9.598 9.598 0 0 0-1.773 4.555Zm-41.963-42.322.448-3.731c.342-2.857 1.266-5.398 2.772-7.625 1.508-2.25 3.499-3.95 5.974-5.102 2.498-1.15 5.394-1.527 8.688-1.132 3.41.408 6.18 1.465 8.313 3.169 2.132 1.704 3.654 3.826 4.564 6.365.913 2.516 1.199 5.203.856 8.06l-.447 3.731c-.343 2.856-1.267 5.398-2.772 7.624-1.482 2.23-3.472 3.919-5.97 5.068-2.472 1.13-5.39 1.492-8.753 1.09-3.364-.404-6.123-1.459-8.278-3.166-2.13-1.727-3.653-3.837-4.569-6.33-.89-2.514-1.166-5.187-.826-8.02Zm10.572-2.518-.447 3.731c-.202 1.682.003 3.284.615 4.806.635 1.525 1.966 2.409 3.993 2.651 2.12.255 3.645-.287 4.576-1.624.955-1.335 1.533-2.843 1.735-4.524l.447-3.732c.202-1.682.021-3.292-.542-4.832-.563-1.54-1.939-2.44-4.127-2.703-2.051-.245-3.556.322-4.516 1.703a9.874 9.874 0 0 0-1.734 4.524Zm-12.458 56.83 57.138-64.936 9.053 1.085-57.137 64.936-9.054-1.085Z" fill="#fff"/></g><defs><clipPath id="a"><path fill="#fff" transform="matrix(-1 0 0 1 354 0)" d="M0 0h354v219H0z"/></clipPath></defs></svg>