<svg width="118" height="118" fill="none" xmlns="http://www.w3.org/2000/svg"><path d="M59 2.074C27.611 2.074 2.074 27.611 2.074 59c0 31.389 25.537 56.926 56.926 56.926 31.389 0 56.926-25.537 56.926-56.926 0-31.389-25.537-56.926-56.926-56.926Zm0 108.321C30.66 110.395 7.605 87.339 7.605 59 7.605 30.661 30.661 7.605 59 7.605c28.34 0 51.395 23.056 51.395 51.395 0 28.34-23.056 51.395-51.395 51.395ZM80.344 59a2.765 2.765 0 0 1-2.765 2.766H59A2.765 2.765 0 0 1 56.234 59V34.371a2.766 2.766 0 1 1 5.532 0v21.863h15.813A2.766 2.766 0 0 1 80.344 59Zm-24.11-37.998v-8.25a2.766 2.766 0 0 1 5.532 0v8.25a2.766 2.766 0 0 1-5.532 0Zm27.68 13.085a2.765 2.765 0 0 1 0-3.912l5.833-5.833a2.766 2.766 0 1 1 3.911 3.91l-5.833 5.835c-.54.54-1.248.81-1.956.81s-1.416-.27-1.956-.81ZM108.013 59a2.765 2.765 0 0 1-2.765 2.766h-8.25a2.766 2.766 0 0 1 0-5.532h8.25A2.765 2.765 0 0 1 108.014 59ZM93.658 89.747a2.765 2.765 0 1 1-3.91 3.911l-5.834-5.833a2.765 2.765 0 1 1 3.911-3.912l5.833 5.834ZM61.766 97v8.249a2.766 2.766 0 1 1-5.532 0v-8.25a2.766 2.766 0 0 1 5.532 0Zm-27.68-13.086a2.765 2.765 0 0 1 0 3.912l-5.833 5.833c-.54.54-1.248.81-1.956.81a2.765 2.765 0 0 1-1.956-4.721l5.835-5.834a2.766 2.766 0 0 1 3.91 0ZM23.768 59a2.766 2.766 0 0 1-2.765 2.766h-8.25a2.766 2.766 0 0 1 0-5.532h8.25A2.766 2.766 0 0 1 23.767 59Zm10.32-28.825a2.765 2.765 0 1 1-3.912 3.912l-5.833-5.834a2.765 2.765 0 1 1 3.911-3.911l5.834 5.834Z" fill="#5FC4F8"/></svg>