<svg width="99" height="113" fill="none" xmlns="http://www.w3.org/2000/svg"><g clip-path="url(#a)"><path d="M12.22 108.438v-.026l-.002-.026L1.5 5.861h81.997l-10.713 102.51-.003.026V108.445a.247.247 0 0 1-.04.074 1.127 1.127 0 0 1-.285.246c-.307.201-.797.415-1.487.63-1.375.426-3.425.817-6.087 1.148-5.316.662-12.988 1.072-22.38 1.072-9.394 0-17.066-.41-22.382-1.071-2.662-.33-4.712-.722-6.086-1.148-.691-.214-1.18-.429-1.487-.63-.153-.1-.24-.185-.286-.246a.248.248 0 0 1-.04-.072v-.01Z" fill="#F0F5F9" stroke="#5FC4F8"/><path d="m7.614 37.65 7.227 72.39c2.862.907 11.808 2.077 27.659 2.077 15.85 0 24.787-1.167 27.655-2.078l7.226-72.39H7.614Z" fill="#5FC4F8"/><path d="M42.5 40.974c19.265 0 34.883-1.489 34.883-3.325S61.765 34.324 42.5 34.324 7.615 35.813 7.615 37.65s15.618 3.325 34.884 3.325Z" fill="#3DBCE9"/><path d="M48.007 112.085c-1.43.022-2.904.033-4.422.032a192.146 192.146 0 0 1-22.436-1.08c-5.35-.667-8.342-1.584-8.342-2.599L2.031 5.361h8.854l10.78 103.077c0 1.015 2.991 1.932 8.33 2.599a174.26 174.26 0 0 0 18.012 1.048Z" fill="#fff" opacity=".5"/><path d="M63.908 112.095c-.927.022-1.878.022-2.838.022a192.16 192.16 0 0 1-22.437-1.08c-5.35-.667-8.34-1.584-8.34-2.599L19.515 5.361h5.504l10.775 103.077c0 1.015 2.99 1.932 8.34 2.599a180.138 180.138 0 0 0 19.773 1.058Z" fill="#fff" opacity=".5"/><path d="M83.556 5.364c-.002.01-.015.048-.079.115-.09.095-.247.213-.499.346-.501.264-1.273.534-2.311.799-2.069.527-5.084 1.007-8.836 1.412-7.497.808-17.867 1.31-29.33 1.31-11.462 0-21.832-.502-29.329-1.31-3.751-.405-6.767-.885-8.835-1.412-1.038-.265-1.81-.535-2.312-.8-.251-.132-.41-.25-.499-.345-.064-.067-.076-.105-.078-.115.002-.01.014-.048.078-.115.09-.095.248-.213.5-.346.5-.264 1.273-.534 2.31-.799 2.07-.527 5.085-1.007 8.836-1.412 7.497-.808 17.867-1.31 29.33-1.31 11.462 0 21.832.502 29.33 1.31 3.75.405 6.766.885 8.835 1.412 1.038.265 1.81.535 2.311.8.252.132.41.25.5.345.063.067.076.105.078.115Zm-82.108.003v-.002.002Zm82.108-.006v.002-.002Z" fill="#F0F5F9" stroke="#5FC4F8"/></g><defs><clipPath id="a"><path fill="#fff" d="M0 0h99v113H0z"/></clipPath></defs></svg>