<svg width="114" height="114" fill="none" xmlns="http://www.w3.org/2000/svg"><g clip-path="url(#a)" fill="#5FC4F8"><path d="M99.067 71.66a5.12 5.12 0 0 0-7.233 0l-12.02 12.02-4.201-4.202a5.121 5.121 0 0 0-7.234 0 5.121 5.121 0 0 0 0 7.234l7.818 7.818a5.083 5.083 0 0 0 3.617 1.498c1.366 0 2.651-.532 3.617-1.498l15.636-15.637a5.08 5.08 0 0 0 1.499-3.617 5.089 5.089 0 0 0-1.499-3.617Zm-2.372 4.861L81.058 92.158a1.749 1.749 0 0 1-1.245.515c-.47 0-.912-.183-1.244-.515l-7.818-7.819a1.75 1.75 0 0 1-.515-1.244 1.755 1.755 0 0 1 1.76-1.76c.45 0 .9.172 1.244.516l5.388 5.387a1.678 1.678 0 0 0 2.372 0l13.205-13.206a1.762 1.762 0 0 1 3.005 1.245c0 .47-.183.912-.515 1.244Z"/><path d="M106.953 64.09V50.788a1.677 1.677 0 1 0-3.355 0v9.859a30.305 30.305 0 0 0-7.404-4.75c-.1-.045-.2-.088-.302-.132l-.305-.134c-.18-.077-.36-.15-.541-.224-.023-.01-.046-.02-.07-.028a30.014 30.014 0 0 0-4.655-1.445v-9.856c0-.927-.75-1.678-1.677-1.678H77.836c-.927 0-1.677.751-1.677 1.678v10.078c-5.224 1.337-10.01 4.06-13.913 7.988a1.678 1.678 0 0 0 2.38 2.365c5.091-5.124 11.874-7.946 19.096-7.946.24 0 .479.003.717.01.042 0 .083.003.125.004.2.006.399.014.598.024l.094.006c.211.012.422.026.632.043l.046.004c3.1.255 6.108 1.044 8.9 2.31.097.044.192.09.288.135l.294.138c.172.084.343.168.512.255l.05.026c8.701 4.466 14.667 13.533 14.667 23.967 0 14.845-12.077 26.922-26.922 26.922-13.915 0-25.399-10.612-26.782-24.168l-.002-.02c-.022-.212-.04-.427-.057-.641l-.01-.139c-.013-.18-.025-.36-.034-.54l-.013-.307-.015-.39a26.871 26.871 0 0 1 3.892-14.683 1.677 1.677 0 1 0-2.866-1.743 30.224 30.224 0 0 0-4.38 16.454c0 .057.003.113.005.17.006.197.013.395.022.592l.008.142a31.088 31.088 0 0 0 .046.71 29.867 29.867 0 0 0 1.796 8.187H3.355V66.909a1.677 1.677 0 1 0-3.355 0v28.799c0 .926.751 1.677 1.677 1.677h55.154c5.044 9.72 15.205 16.377 26.892 16.377 16.695 0 30.277-13.582 30.277-30.277 0-7.373-2.65-14.138-7.047-19.395ZM86.966 53.208h-7.453v-7.453h7.453v7.453ZM29.232 42.4H18.425c-.927 0-1.678.751-1.678 1.678v10.807c0 .927.751 1.678 1.678 1.678h10.807c.927 0 1.678-.75 1.678-1.678V44.078c0-.927-.751-1.678-1.678-1.678Zm-1.677 10.808h-7.453v-7.453h7.453v7.453Z"/><path d="M49.036 42.4H38.228c-.926 0-1.677.751-1.677 1.678v10.807c0 .927.75 1.678 1.677 1.678h10.808c.926 0 1.678-.75 1.678-1.678V44.078c0-.927-.752-1.678-1.678-1.678Zm-1.678 10.808h-7.452v-7.453h7.453v7.453ZM68.84 42.4H58.032c-.926 0-1.677.751-1.677 1.678v10.807c0 .927.75 1.678 1.677 1.678H68.84c.926 0 1.677-.75 1.677-1.678V44.078c0-.927-.75-1.678-1.677-1.678Zm-1.678 10.808H59.71v-7.453h7.453v7.453ZM29.232 65.603H18.425c-.927 0-1.678.751-1.678 1.678v10.808c0 .926.751 1.677 1.678 1.677h10.807c.927 0 1.678-.75 1.678-1.677V67.28c0-.927-.751-1.678-1.678-1.678Zm-1.677 10.808h-7.453v-7.453h7.453v7.453ZM49.036 65.603H38.228c-.926 0-1.677.751-1.677 1.678v10.808c0 .926.75 1.677 1.677 1.677h10.808c.926 0 1.678-.75 1.678-1.677V67.28c0-.927-.752-1.678-1.678-1.678Zm-1.678 10.808h-7.452v-7.453h7.453v7.453Z"/><path d="M105.333 12.956h-10.48V6.894A6.664 6.664 0 0 0 88.197.237a6.664 6.664 0 0 0-6.657 6.657v6.062H25.528V6.894A6.664 6.664 0 0 0 18.872.237a6.664 6.664 0 0 0-6.656 6.657v6.062H1.677c-.926 0-1.677.75-1.677 1.677V60.2a1.677 1.677 0 1 0 3.355 0V34.467h100.243v9.612a1.677 1.677 0 1 0 3.355 0v-10.86c.037-.137.058-.28.058-.43V14.633c0-.927-.751-1.677-1.678-1.677ZM84.895 6.894a3.305 3.305 0 0 1 3.302-3.302 3.305 3.305 0 0 1 3.3 3.302V20.01c0 .228-.022.45-.066.664a3.307 3.307 0 0 1-3.234 2.637 3.305 3.305 0 0 1-3.302-3.3V6.893Zm-69.324 0c0-1.82 1.48-3.302 3.3-3.302a3.305 3.305 0 0 1 3.302 3.302V20.01a3.305 3.305 0 0 1-3.301 3.301 3.305 3.305 0 0 1-3.301-3.301V6.894Zm88.027 24.218H3.413V16.31h8.803v3.7a6.664 6.664 0 0 0 6.656 6.656 6.664 6.664 0 0 0 6.656-6.656v-3.7h56.013v3.7a6.664 6.664 0 0 0 6.656 6.656 6.664 6.664 0 0 0 6.656-6.656v-3.7h8.746v14.802h-.001Z"/></g><defs><clipPath id="a"><path fill="#fff" d="M0 0h114v114H0z"/></clipPath></defs></svg>